<svg id="my-svg" width="100%" xmlns="http://www.w3.org/2000/svg" xmlns:xlink="http://www.w3.org/1999/xlink" style="max-width: 1470.24px; background-color: transparent;" viewBox="-8 -8 1470.23828125 4034.15625" role="graphics-document document" aria-roledescription="flowchart-v2"><style>#my-svg{font-size:16px;fill:#16231f;}#my-svg .error-icon{fill:hsl(220.5882352941, 100%, 98.3333333333%);}#my-svg .error-text{fill:rgb(8.5000000002, 5.7500000001, 0);stroke:rgb(8.5000000002, 5.7500000001, 0);}#my-svg .edge-thickness-normal{stroke-width:2px;}#my-svg .edge-thickness-thick{stroke-width:3.5px;}#my-svg .edge-pattern-solid{stroke-dasharray:0;}#my-svg .edge-pattern-dashed{stroke-dasharray:3;}#my-svg .edge-pattern-dotted{stroke-dasharray:2;}#my-svg .marker{fill:#66736e;stroke:#66736e;}#my-svg .marker.cross{stroke:#66736e;}#my-svg svg{font-size:16px;}#my-svg .label{color:#16231f;}#my-svg .cluster-label text{fill:rgb(8.5000000002, 5.7500000001, 0);}#my-svg .cluster-label span,#my-svg p{color:rgb(8.5000000002, 5.7500000001, 0);}#my-svg .label text,#my-svg span,#my-svg p{fill:#16231f;color:#16231f;}#my-svg .node rect,#my-svg .node circle,#my-svg .node ellipse,#my-svg .node polygon,#my-svg .node path{fill:#fff4dd;stroke:hsl(40.5882352941, 60%, 83.3333333333%);stroke-width:1px;}#my-svg .flowchart-label text{text-anchor:middle;}#my-svg .node .katex path{fill:#000;stroke:#000;stroke-width:1px;}#my-svg .node .label{text-align:center;}#my-svg .node.clickable{cursor:pointer;}#my-svg .arrowheadPath{fill:#0b0b0b;}#my-svg .edgePath .path{stroke:#66736e;stroke-width:2.0px;}#my-svg .flowchart-link{stroke:#66736e;fill:none;}#my-svg .edgeLabel{background-color:hsl(-79.4117647059, 100%, 93.3333333333%);text-align:center;}#my-svg .edgeLabel rect{opacity:0.5;background-color:hsl(-79.4117647059, 100%, 93.3333333333%);fill:hsl(-79.4117647059, 100%, 93.3333333333%);}#my-svg .labelBkg{background-color:rgba(243.9999999999, 220.9999999998, 255, 0.5);}#my-svg .cluster rect{fill:hsl(220.5882352941, 100%, 98.3333333333%);stroke:hsl(220.5882352941, 60%, 88.3333333333%);stroke-width:1px;}#my-svg .cluster text{fill:rgb(8.5000000002, 5.7500000001, 0);}#my-svg .cluster span,#my-svg p{color:rgb(8.5000000002, 5.7500000001, 0);}#my-svg div.mermaidTooltip{position:absolute;text-align:center;max-width:200px;padding:2px;font-size:12px;background:hsl(220.5882352941, 100%, 98.3333333333%);border:1px solid hsl(220.5882352941, 60%, 88.3333333333%);border-radius:2px;pointer-events:none;z-index:100;}#my-svg .flowchartTitleText{text-anchor:middle;font-size:18px;fill:#16231f;}#my-svg :root{--mermaid-font-family:"trebuchet ms",verdana,arial,sans-serif;}#my-svg .client&gt;*{fill:rgb(237, 245, 241)!important;stroke:rgb(79, 124, 111)!important;stroke-width:1.5px!important;color:rgb(22, 35, 31)!important;}#my-svg .client span{fill:rgb(237, 245, 241)!important;stroke:rgb(79, 124, 111)!important;stroke-width:1.5px!important;color:rgb(22, 35, 31)!important;}#my-svg .client tspan{fill:rgb(22, 35, 31)!important;}#my-svg .api&gt;*{fill:rgb(238, 244, 250)!important;stroke:rgb(82, 120, 154)!important;stroke-width:1.5px!important;color:rgb(22, 35, 31)!important;}#my-svg .api span{fill:rgb(238, 244, 250)!important;stroke:rgb(82, 120, 154)!important;stroke-width:1.5px!important;color:rgb(22, 35, 31)!important;}#my-svg .api tspan{fill:rgb(22, 35, 31)!important;}#my-svg .llm&gt;*{fill:rgb(251, 242, 231)!important;stroke:rgb(167, 110, 53)!important;stroke-width:1.5px!important;color:rgb(43, 33, 24)!important;}#my-svg .llm span{fill:rgb(251, 242, 231)!important;stroke:rgb(167, 110, 53)!important;stroke-width:1.5px!important;color:rgb(43, 33, 24)!important;}#my-svg .llm tspan{fill:rgb(43, 33, 24)!important;}#my-svg .decision&gt;*{fill:rgb(255, 248, 223)!important;stroke:rgb(170, 132, 45)!important;stroke-width:1.5px!important;color:rgb(43, 38, 23)!important;}#my-svg .decision span{fill:rgb(255, 248, 223)!important;stroke:rgb(170, 132, 45)!important;stroke-width:1.5px!important;color:rgb(43, 38, 23)!important;}#my-svg .decision tspan{fill:rgb(43, 38, 23)!important;}#my-svg .data&gt;*{fill:rgb(241, 239, 247)!important;stroke:rgb(120, 107, 148)!important;stroke-width:1.5px!important;color:rgb(33, 29, 43)!important;}#my-svg .data span{fill:rgb(241, 239, 247)!important;stroke:rgb(120, 107, 148)!important;stroke-width:1.5px!important;color:rgb(33, 29, 43)!important;}#my-svg .data tspan{fill:rgb(33, 29, 43)!important;}#my-svg .output&gt;*{fill:rgb(234, 246, 238)!important;stroke:rgb(60, 128, 96)!important;stroke-width:2px!important;color:rgb(19, 39, 30)!important;}#my-svg .output span{fill:rgb(234, 246, 238)!important;stroke:rgb(60, 128, 96)!important;stroke-width:2px!important;color:rgb(19, 39, 30)!important;}#my-svg .output tspan{fill:rgb(19, 39, 30)!important;}#my-svg .note&gt;*{fill:rgb(255, 255, 255)!important;stroke:rgb(139, 150, 145)!important;stroke-dasharray:5,4!important;color:rgb(57, 69, 64)!important;}#my-svg .note span{fill:rgb(255, 255, 255)!important;stroke:rgb(139, 150, 145)!important;stroke-dasharray:5,4!important;color:rgb(57, 69, 64)!important;}#my-svg .note tspan{fill:rgb(57, 69, 64)!important;}</style><g><marker id="my-svg_flowchart-pointEnd" class="marker flowchart" viewBox="0 0 10 10" refX="6" refY="5" markerUnits="userSpaceOnUse" markerWidth="12" markerHeight="12" orient="auto"><path d="M 0 0 L 10 5 L 0 10 z" class="arrowMarkerPath" style="stroke-width: 1; stroke-dasharray: 1, 0;"/></marker><marker id="my-svg_flowchart-pointStart" class="marker flowchart" viewBox="0 0 10 10" refX="4.5" refY="5" markerUnits="userSpaceOnUse" markerWidth="12" markerHeight="12" orient="auto"><path d="M 0 5 L 10 10 L 10 0 z" class="arrowMarkerPath" style="stroke-width: 1; stroke-dasharray: 1, 0;"/></marker><marker id="my-svg_flowchart-circleEnd" class="marker flowchart" viewBox="0 0 10 10" refX="11" refY="5" markerUnits="userSpaceOnUse" markerWidth="11" markerHeight="11" orient="auto"><circle cx="5" cy="5" r="5" class="arrowMarkerPath" style="stroke-width: 1; stroke-dasharray: 1, 0;"/></marker><marker id="my-svg_flowchart-circleStart" class="marker flowchart" viewBox="0 0 10 10" refX="-1" refY="5" markerUnits="userSpaceOnUse" markerWidth="11" markerHeight="11" orient="auto"><circle cx="5" cy="5" r="5" class="arrowMarkerPath" style="stroke-width: 1; stroke-dasharray: 1, 0;"/></marker><marker id="my-svg_flowchart-crossEnd" class="marker cross flowchart" viewBox="0 0 11 11" refX="12" refY="5.2" markerUnits="userSpaceOnUse" markerWidth="11" markerHeight="11" orient="auto"><path d="M 1,1 l 9,9 M 10,1 l -9,9" class="arrowMarkerPath" style="stroke-width: 2; stroke-dasharray: 1, 0;"/></marker><marker id="my-svg_flowchart-crossStart" class="marker cross flowchart" viewBox="0 0 11 11" refX="-1" refY="5.2" markerUnits="userSpaceOnUse" markerWidth="11" markerHeight="11" orient="auto"><path d="M 1,1 l 9,9 M 10,1 l -9,9" class="arrowMarkerPath" style="stroke-width: 2; stroke-dasharray: 1, 0;"/></marker><g class="root"><g class="clusters"><g class="cluster default flowchart-label" id="AFTER"><rect style="" rx="0" ry="0" x="351.14453125" y="3631.15625" width="512.671875" height="387"/><g class="cluster-label" transform="translate(453.93359375, 3631.15625)"><foreignObject width="307.09375" height="24"><div xmlns="http://www.w3.org/1999/xhtml" style="display: inline-block; white-space: nowrap;"><span class="nodeLabel">6. 回答后的异步维护，不阻塞用户看到答案</span></div></foreignObject></g></g><g class="cluster default flowchart-label" id="WRITER"><rect style="" rx="0" ry="0" x="144.82421875" y="2863.15625" width="947.30078125" height="726"/><g class="cluster-label" transform="translate(506.427734375, 2863.15625)"><foreignObject width="224.09375" height="24"><div xmlns="http://www.w3.org/1999/xhtml" style="display: inline-block; white-space: nowrap;"><span class="nodeLabel">5. MRPrompt 上下文组装与生成</span></div></foreignObject></g></g><g class="cluster default flowchart-label" id="ALT"><rect style="" rx="0" ry="0" x="544.234375" y="2668.15625" width="673.640625" height="153"/><g class="cluster-label" transform="translate(823.4765625, 2668.15625)"><foreignObject width="115.15625" height="24"><div xmlns="http://www.w3.org/1999/xhtml" style="display: inline-block; white-space: nowrap;"><span class="nodeLabel">4B. 非 new 旁路</span></div></foreignObject></g></g><g class="cluster default flowchart-label" id="NEWPATH"><rect style="" rx="0" ry="0" x="0" y="2035.75" width="524.234375" height="785.40625"/><g class="cluster-label" transform="translate(137.1640625, 2035.75)"><foreignObject width="249.90625" height="24"><div xmlns="http://www.w3.org/1999/xhtml" style="display: inline-block; white-space: nowrap;"><span class="nodeLabel">4A. new：为当前问题重新建立证据</span></div></foreignObject></g></g><g class="cluster default flowchart-label" id="WORKER"><rect style="" rx="0" ry="0" x="161.671875" y="746" width="901.5546875" height="1228.75"/><g class="cluster-label" transform="translate(506.89453125, 746)"><foreignObject width="211.109375" height="24"><div xmlns="http://www.w3.org/1999/xhtml" style="display: inline-block; white-space: nowrap;"><span class="nodeLabel">3. ChatTaskManager 后台执行</span></div></foreignObject></g></g><g class="cluster default flowchart-label" id="API"><rect style="" rx="0" ry="0" x="1083.2265625" y="367" width="355" height="508"/><g class="cluster-label" transform="translate(1190.5546875, 367)"><foreignObject width="140.34375" height="24"><div xmlns="http://www.w3.org/1999/xhtml" style="display: inline-block; white-space: nowrap;"><span class="nodeLabel">2. FastAPI 请求边界</span></div></foreignObject></g></g><g class="cluster default flowchart-label" id="CLIENT"><rect style="" rx="0" ry="0" x="1021.23828125" y="0" width="433" height="325"/><g class="cluster-label" transform="translate(1181.75390625, 0)"><foreignObject width="111.96875" height="24"><div xmlns="http://www.w3.org/1999/xhtml" style="display: inline-block; white-space: nowrap;"><span class="nodeLabel">1. React 客户端</span></div></foreignObject></g></g></g><g class="edgePaths"><path d="M1237.738,84L1237.738,87.5C1237.738,91,1237.738,98,1237.738,104.117C1237.738,110.233,1237.738,115.467,1237.738,118.083L1237.738,120.7" id="L-Q-REQ-0" class="edge-thickness-normal edge-pattern-solid flowchart-link LS-Q LE-REQ" style="fill:none;" marker-end="url(#my-svg_flowchart-pointEnd)"/><path d="M1237.738,451L1237.738,454.5C1237.738,458,1237.738,465,1237.738,471.117C1237.738,477.233,1237.738,482.467,1237.738,485.083L1237.738,487.7" id="L-AUTH-GUARD-0" class="edge-thickness-normal edge-pattern-solid flowchart-link LS-AUTH LE-GUARD" style="fill:none;" marker-end="url(#my-svg_flowchart-pointEnd)"/><path d="M1237.738,556L1237.738,559.5C1237.738,563,1237.738,570,1237.738,576.117C1237.738,582.233,1237.738,587.467,1237.738,590.083L1237.738,592.7" id="L-GUARD-TURN-0" class="edge-thickness-normal edge-pattern-solid flowchart-link LS-GUARD LE-TURN" style="fill:none;" marker-end="url(#my-svg_flowchart-pointEnd)"/><path d="M1254.203,704L1255.29,707.5C1256.377,711,1258.552,718,1259.639,725C1260.727,732,1260.727,739,1260.727,745.117C1260.727,751.233,1260.727,756.467,1260.727,759.083L1260.727,761.7" id="L-TURN-ACCEPT-0" class="edge-thickness-normal edge-pattern-solid flowchart-link LS-TURN LE-ACCEPT" style="fill:none;" marker-end="url(#my-svg_flowchart-pointEnd)"/><path d="M1237.738,304L1237.738,307.5C1237.738,311,1237.738,318,1237.738,325C1237.738,332,1237.738,339,1237.738,346C1237.738,353,1237.738,360,1237.738,366.117C1237.738,372.233,1237.738,377.467,1237.738,380.083L1237.738,382.7" id="L-REQ-AUTH-0" class="edge-thickness-normal edge-pattern-solid flowchart-link LS-REQ LE-AUTH" style="fill:none;" marker-end="url(#my-svg_flowchart-pointEnd)"/><path d="M716.406,851.5L716.406,855.417C716.406,859.333,716.406,867.167,716.406,874.583C716.406,882,716.406,889,716.406,895.117C716.406,901.233,716.406,906.467,716.406,909.083L716.406,911.7" id="L-CLAIM-ASSETS-0" class="edge-thickness-normal edge-pattern-solid flowchart-link LS-CLAIM LE-ASSETS" style="fill:none;" marker-end="url(#my-svg_flowchart-pointEnd)"/><path d="M716.406,1028L716.406,1031.5C716.406,1035,716.406,1042,716.406,1048.117C716.406,1054.233,716.406,1059.467,716.406,1062.083L716.406,1064.7" id="L-ASSETS-MEMRECALL-0" class="edge-thickness-normal edge-pattern-solid flowchart-link LS-ASSETS LE-MEMRECALL" style="fill:none;" marker-end="url(#my-svg_flowchart-pointEnd)"/><path d="M716.406,1157L716.406,1160.5C716.406,1164,716.406,1171,716.406,1177.117C716.406,1183.233,716.406,1188.467,716.406,1191.083L716.406,1193.7" id="L-MEMRECALL-PLANNER-0" class="edge-thickness-normal edge-pattern-solid flowchart-link LS-MEMRECALL LE-PLANNER" style="fill:none;" marker-end="url(#my-svg_flowchart-pointEnd)"/><path d="M716.406,1281L716.406,1284.5C716.406,1288,716.406,1295,716.406,1301.117C716.406,1307.233,716.406,1312.467,716.406,1315.083L716.406,1317.7" id="L-PLANNER-PLANJSON-0" class="edge-thickness-normal edge-pattern-solid flowchart-link LS-PLANNER LE-PLANJSON" style="fill:none;" marker-end="url(#my-svg_flowchart-pointEnd)"/><path d="M716.406,1597L716.406,1600.5C716.406,1604,716.406,1611,716.406,1617.117C716.406,1623.233,716.406,1628.467,716.406,1631.083L716.406,1633.7" id="L-PLANJSON-HISTORY-0" class="edge-thickness-normal edge-pattern-solid flowchart-link LS-PLANJSON LE-HISTORY" style="fill:none;" marker-end="url(#my-svg_flowchart-pointEnd)"/><path d="M716.406,1750L716.406,1753.5C716.406,1757,716.406,1764,716.469,1770.2C716.532,1776.4,716.657,1781.801,716.72,1784.501L716.783,1787.201" id="L-HISTORY-ROUTE-0" class="edge-thickness-normal edge-pattern-solid flowchart-link LS-HISTORY LE-ROUTE" style="fill:none;" marker-end="url(#my-svg_flowchart-pointEnd)"/><path d="M1180.612,704L1176.839,707.5C1173.067,711,1165.522,718,1161.749,725C1157.977,732,1157.977,739,1099.839,750.992C1041.701,762.984,925.426,779.969,867.288,788.461L809.151,796.953" id="L-TURN-CLAIM-0" class="edge-thickness-normal edge-pattern-solid flowchart-link LS-TURN LE-CLAIM" style="fill:none;" marker-end="url(#my-svg_flowchart-pointEnd)"/><path d="M201.825,2171.34L197.891,2180.143C193.957,2188.946,186.09,2206.551,182.156,2219.97C178.223,2233.39,178.223,2242.623,178.223,2247.24L178.223,2251.856" id="L-WEB-TAVILY-0" class="edge-thickness-normal edge-pattern-solid flowchart-link LS-WEB LE-TAVILY" style="fill:none;" marker-end="url(#my-svg_flowchart-pointEnd)"/><path d="M135.718,2344.156L130.344,2349.656C124.969,2355.156,114.221,2366.156,108.847,2384.406C103.473,2402.656,103.473,2428.156,103.473,2451.656C103.473,2475.156,103.473,2496.656,111.487,2510.581C119.502,2524.506,135.531,2530.855,143.546,2534.03L151.56,2537.204" id="L-TAVILY-TRANSFORM-0" class="edge-thickness-normal edge-pattern-solid flowchart-link LS-TAVILY LE-TRANSFORM" style="fill:none;" marker-end="url(#my-svg_flowchart-pointEnd)"/><path d="M220.052,2344.156L225.341,2349.656C230.63,2355.156,241.208,2366.156,246.496,2376.273C251.785,2386.39,251.785,2395.623,251.785,2400.24L251.785,2404.856" id="L-TAVILY-FALLBACK-0" class="edge-thickness-normal edge-pattern-dotted flowchart-link LS-TAVILY LE-FALLBACK" style="fill:none;stroke-width:2px;stroke-dasharray:3;" marker-end="url(#my-svg_flowchart-pointEnd)"/><path d="M251.785,2497.156L251.785,2500.656C251.785,2504.156,251.785,2511.156,252.379,2517.294C252.973,2523.433,254.161,2528.709,254.755,2531.347L255.348,2533.986" id="L-FALLBACK-TRANSFORM-0" class="edge-thickness-normal edge-pattern-solid flowchart-link LS-FALLBACK LE-TRANSFORM" style="fill:none;" marker-end="url(#my-svg_flowchart-pointEnd)"/><path d="M266.282,2147.515L290.806,2160.289C315.331,2173.062,364.38,2198.609,388.905,2224.133C413.43,2249.656,413.43,2275.156,413.43,2300.656C413.43,2326.156,413.43,2351.656,413.43,2377.156C413.43,2402.656,413.43,2428.156,413.43,2451.656C413.43,2475.156,413.43,2496.656,406.255,2510.552C399.081,2524.447,384.732,2530.738,377.557,2533.883L370.383,2537.028" id="L-WEB-TRANSFORM-0" class="edge-thickness-normal edge-pattern-solid flowchart-link LS-WEB LE-TRANSFORM" style="fill:none;" marker-end="url(#my-svg_flowchart-pointEnd)"/><path d="M266.305,2626.156L266.305,2629.656C266.305,2633.156,266.305,2640.156,266.305,2647.156C266.305,2654.156,266.305,2661.156,266.305,2667.273C266.305,2673.39,266.305,2678.623,266.305,2681.24L266.305,2683.856" id="L-TRANSFORM-RAG-0" class="edge-thickness-normal edge-pattern-solid flowchart-link LS-TRANSFORM LE-RAG" style="fill:none;" marker-end="url(#my-svg_flowchart-pointEnd)"/><path d="M649.84,1887.184L578.474,1901.779C507.107,1916.373,364.374,1945.561,293.007,1965.239C221.641,1984.917,221.641,1995.083,221.641,2005.25C221.641,2015.417,221.641,2025.583,221.703,2033.367C221.766,2041.15,221.892,2046.551,221.955,2049.251L222.017,2051.951" id="L-ROUTE-WEB-0" class="edge-thickness-normal edge-pattern-solid flowchart-link LS-ROUTE LE-WEB" style="fill:none;" marker-end="url(#my-svg_flowchart-pointEnd)"/><path d="M716.906,1954.25L716.823,1957.667C716.74,1961.083,716.573,1967.917,716.49,1976.417C716.406,1984.917,716.406,1995.083,716.406,2005.25C716.406,2015.417,716.406,2025.583,716.406,2045.367C716.406,2065.151,716.406,2094.552,716.406,2125.953C716.406,2157.354,716.406,2190.755,716.406,2220.206C716.406,2249.656,716.406,2275.156,716.406,2300.656C716.406,2326.156,716.406,2351.656,716.406,2377.156C716.406,2402.656,716.406,2428.156,716.406,2451.656C716.406,2475.156,716.406,2496.656,716.406,2518.156C716.406,2539.656,716.406,2561.156,716.406,2582.656C716.406,2604.156,716.406,2625.656,716.406,2639.906C716.406,2654.156,716.406,2661.156,716.406,2669.69C716.406,2678.223,716.406,2688.29,716.406,2693.323L716.406,2698.356" id="L-ROUTE-REUSE-0" class="edge-thickness-normal edge-pattern-solid flowchart-link LS-ROUTE LE-REUSE" style="fill:none;" marker-end="url(#my-svg_flowchart-pointEnd)"/><path d="M778.562,1892.594L822.673,1906.287C866.784,1919.979,955.005,1947.365,999.116,1966.141C1043.227,1984.917,1043.227,1995.083,1043.227,2005.25C1043.227,2015.417,1043.227,2025.583,1043.227,2045.367C1043.227,2065.151,1043.227,2094.552,1043.227,2125.953C1043.227,2157.354,1043.227,2190.755,1043.227,2220.206C1043.227,2249.656,1043.227,2275.156,1043.227,2300.656C1043.227,2326.156,1043.227,2351.656,1043.227,2377.156C1043.227,2402.656,1043.227,2428.156,1043.227,2451.656C1043.227,2475.156,1043.227,2496.656,1043.227,2518.156C1043.227,2539.656,1043.227,2561.156,1043.227,2582.656C1043.227,2604.156,1043.227,2625.656,1043.227,2639.906C1043.227,2654.156,1043.227,2661.156,1043.227,2669.69C1043.227,2678.223,1043.227,2688.29,1043.227,2693.323L1043.227,2698.356" id="L-ROUTE-NONE-0" class="edge-thickness-normal edge-pattern-solid flowchart-link LS-ROUTE LE-NONE" style="fill:none;" marker-end="url(#my-svg_flowchart-pointEnd)"/><path d="M607.48,3009.156L607.48,3012.656C607.48,3016.156,607.48,3023.156,607.48,3029.273C607.48,3035.39,607.48,3040.623,607.48,3043.24L607.48,3045.856" id="L-PACK-LIMIT-0" class="edge-thickness-normal edge-pattern-solid flowchart-link LS-PACK LE-LIMIT" style="fill:none;" marker-end="url(#my-svg_flowchart-pointEnd)"/><path d="M607.48,3162.156L607.48,3165.656C607.48,3169.156,607.48,3176.156,607.48,3182.273C607.48,3188.39,607.48,3193.623,607.48,3196.24L607.48,3198.856" id="L-LIMIT-GENERATE-0" class="edge-thickness-normal edge-pattern-solid flowchart-link LS-LIMIT LE-GENERATE" style="fill:none;" marker-end="url(#my-svg_flowchart-pointEnd)"/><path d="M607.48,3286.156L607.48,3289.656C607.48,3293.156,607.48,3300.156,607.48,3306.273C607.48,3312.39,607.48,3317.623,607.48,3320.24L607.48,3322.856" id="L-GENERATE-TOKENS-0" class="edge-thickness-normal edge-pattern-solid flowchart-link LS-GENERATE LE-TOKENS" style="fill:none;" marker-end="url(#my-svg_flowchart-pointEnd)"/><path d="M607.48,3439.156L607.48,3442.656C607.48,3446.156,607.48,3453.156,607.48,3459.273C607.48,3465.39,607.48,3470.623,607.48,3473.24L607.48,3475.856" id="L-TOKENS-DONE-0" class="edge-thickness-normal edge-pattern-solid flowchart-link LS-TOKENS LE-DONE" style="fill:none;" marker-end="url(#my-svg_flowchart-pointEnd)"/><path d="M266.305,2800.156L266.305,2803.656C266.305,2807.156,266.305,2814.156,266.305,2821.156C266.305,2828.156,266.305,2835.156,266.305,2842.156C266.305,2849.156,266.305,2856.156,298.643,2867.571C330.981,2878.985,395.657,2894.814,427.994,2902.729L460.332,2910.643" id="L-RAG-PACK-0" class="edge-thickness-normal edge-pattern-solid flowchart-link LS-RAG LE-PACK" style="fill:none;" marker-end="url(#my-svg_flowchart-pointEnd)"/><path d="M716.406,2785.656L716.406,2791.573C716.406,2797.49,716.406,2809.323,716.406,2818.74C716.406,2828.156,716.406,2835.156,716.406,2842.156C716.406,2849.156,716.406,2856.156,712.542,2862.619C708.677,2869.081,700.947,2875.007,697.083,2877.969L693.218,2880.932" id="L-REUSE-PACK-0" class="edge-thickness-normal edge-pattern-solid flowchart-link LS-REUSE LE-PACK" style="fill:none;" marker-end="url(#my-svg_flowchart-pointEnd)"/><path d="M1043.227,2785.656L1043.227,2791.573C1043.227,2797.49,1043.227,2809.323,1043.227,2818.74C1043.227,2828.156,1043.227,2835.156,1043.227,2842.156C1043.227,2849.156,1043.227,2856.156,995.136,2868.872C947.046,2881.587,850.866,2900.017,802.776,2909.233L754.686,2918.448" id="L-NONE-PACK-0" class="edge-thickness-normal edge-pattern-solid flowchart-link LS-NONE LE-PACK" style="fill:none;" marker-end="url(#my-svg_flowchart-pointEnd)"/><path d="M607.48,3739.156L607.48,3742.656C607.48,3746.156,607.48,3753.156,607.48,3759.273C607.48,3765.39,607.48,3770.623,607.48,3773.24L607.48,3775.856" id="L-SUMMARY-MEMORY-0" class="edge-thickness-normal edge-pattern-solid flowchart-link LS-SUMMARY LE-MEMORY" style="fill:none;" marker-end="url(#my-svg_flowchart-pointEnd)"/><path d="M607.48,3868.156L607.48,3871.656C607.48,3875.156,607.48,3882.156,607.48,3888.273C607.48,3894.39,607.48,3899.623,607.48,3902.24L607.48,3904.856" id="L-MEMORY-TRACE-0" class="edge-thickness-normal edge-pattern-solid flowchart-link LS-MEMORY LE-TRACE" style="fill:none;" marker-end="url(#my-svg_flowchart-pointEnd)"/><path d="M607.48,3568.156L607.48,3571.656C607.48,3575.156,607.48,3582.156,607.48,3589.156C607.48,3596.156,607.48,3603.156,607.48,3610.156C607.48,3617.156,607.48,3624.156,607.48,3630.273C607.48,3636.39,607.48,3641.623,607.48,3644.24L607.48,3646.856" id="L-DONE-SUMMARY-0" class="edge-thickness-normal edge-pattern-solid flowchart-link LS-DONE LE-SUMMARY" style="fill:none;" marker-end="url(#my-svg_flowchart-pointEnd)"/></g><g class="edgeLabels"><g class="edgeLabel"><g class="label" transform="translate(0, 0)"><foreignObject width="0" height="0"><div xmlns="http://www.w3.org/1999/xhtml" style="display: inline-block; white-space: nowrap;"><span class="edgeLabel"></span></div></foreignObject></g></g><g class="edgeLabel"><g class="label" transform="translate(0, 0)"><foreignObject width="0" height="0"><div xmlns="http://www.w3.org/1999/xhtml" style="display: inline-block; white-space: nowrap;"><span class="edgeLabel"></span></div></foreignObject></g></g><g class="edgeLabel"><g class="label" transform="translate(0, 0)"><foreignObject width="0" height="0"><div xmlns="http://www.w3.org/1999/xhtml" style="display: inline-block; white-space: nowrap;"><span class="edgeLabel"></span></div></foreignObject></g></g><g class="edgeLabel"><g class="label" transform="translate(0, 0)"><foreignObject width="0" height="0"><div xmlns="http://www.w3.org/1999/xhtml" style="display: inline-block; white-space: nowrap;"><span class="edgeLabel"></span></div></foreignObject></g></g><g class="edgeLabel"><g class="label" transform="translate(0, 0)"><foreignObject width="0" height="0"><div xmlns="http://www.w3.org/1999/xhtml" style="display: inline-block; white-space: nowrap;"><span class="edgeLabel"></span></div></foreignObject></g></g><g class="edgeLabel"><g class="label" transform="translate(0, 0)"><foreignObject width="0" height="0"><div xmlns="http://www.w3.org/1999/xhtml" style="display: inline-block; white-space: nowrap;"><span class="edgeLabel"></span></div></foreignObject></g></g><g class="edgeLabel"><g class="label" transform="translate(0, 0)"><foreignObject width="0" height="0"><div xmlns="http://www.w3.org/1999/xhtml" style="display: inline-block; white-space: nowrap;"><span class="edgeLabel"></span></div></foreignObject></g></g><g class="edgeLabel"><g class="label" transform="translate(0, 0)"><foreignObject width="0" height="0"><div xmlns="http://www.w3.org/1999/xhtml" style="display: inline-block; white-space: nowrap;"><span class="edgeLabel"></span></div></foreignObject></g></g><g class="edgeLabel"><g class="label" transform="translate(0, 0)"><foreignObject width="0" height="0"><div xmlns="http://www.w3.org/1999/xhtml" style="display: inline-block; white-space: nowrap;"><span class="edgeLabel"></span></div></foreignObject></g></g><g class="edgeLabel"><g class="label" transform="translate(0, 0)"><foreignObject width="0" height="0"><div xmlns="http://www.w3.org/1999/xhtml" style="display: inline-block; white-space: nowrap;"><span class="edgeLabel"></span></div></foreignObject></g></g><g class="edgeLabel"><g class="label" transform="translate(0, 0)"><foreignObject width="0" height="0"><div xmlns="http://www.w3.org/1999/xhtml" style="display: inline-block; white-space: nowrap;"><span class="edgeLabel"></span></div></foreignObject></g></g><g class="edgeLabel"><g class="label" transform="translate(0, 0)"><foreignObject width="0" height="0"><div xmlns="http://www.w3.org/1999/xhtml" style="display: inline-block; white-space: nowrap;"><span class="edgeLabel"></span></div></foreignObject></g></g><g class="edgeLabel" transform="translate(178.22265625, 2224.15625)"><g class="label" transform="translate(-8, -12)"><foreignObject width="16" height="24"><div xmlns="http://www.w3.org/1999/xhtml" style="display: inline-block; white-space: nowrap;"><span class="edgeLabel">是</span></div></foreignObject></g></g><g class="edgeLabel"><g class="label" transform="translate(0, 0)"><foreignObject width="0" height="0"><div xmlns="http://www.w3.org/1999/xhtml" style="display: inline-block; white-space: nowrap;"><span class="edgeLabel"></span></div></foreignObject></g></g><g class="edgeLabel" transform="translate(251.78515625, 2377.15625)"><g class="label" transform="translate(-16, -12)"><foreignObject width="32" height="24"><div xmlns="http://www.w3.org/1999/xhtml" style="display: inline-block; white-space: nowrap;"><span class="edgeLabel">异常</span></div></foreignObject></g></g><g class="edgeLabel"><g class="label" transform="translate(0, 0)"><foreignObject width="0" height="0"><div xmlns="http://www.w3.org/1999/xhtml" style="display: inline-block; white-space: nowrap;"><span class="edgeLabel"></span></div></foreignObject></g></g><g class="edgeLabel" transform="translate(413.4296875, 2377.15625)"><g class="label" transform="translate(-8, -12)"><foreignObject width="16" height="24"><div xmlns="http://www.w3.org/1999/xhtml" style="display: inline-block; white-space: nowrap;"><span class="edgeLabel">否</span></div></foreignObject></g></g><g class="edgeLabel"><g class="label" transform="translate(0, 0)"><foreignObject width="0" height="0"><div xmlns="http://www.w3.org/1999/xhtml" style="display: inline-block; white-space: nowrap;"><span class="edgeLabel"></span></div></foreignObject></g></g><g class="edgeLabel" transform="translate(221.640625, 2005.25)"><g class="label" transform="translate(-14.6875, -9.5)"><foreignObject width="29.375" height="19"><div xmlns="http://www.w3.org/1999/xhtml" style="display: inline-block; white-space: nowrap;"><span class="edgeLabel">new</span></div></foreignObject></g></g><g class="edgeLabel" transform="translate(716.40625, 2377.15625)"><g class="label" transform="translate(-19.4453125, -9.5)"><foreignObject width="38.890625" height="19"><div xmlns="http://www.w3.org/1999/xhtml" style="display: inline-block; white-space: nowrap;"><span class="edgeLabel">reuse</span></div></foreignObject></g></g><g class="edgeLabel" transform="translate(1043.2265625, 2377.15625)"><g class="label" transform="translate(-17.3984375, -9.5)"><foreignObject width="34.796875" height="19"><div xmlns="http://www.w3.org/1999/xhtml" style="display: inline-block; white-space: nowrap;"><span class="edgeLabel">none</span></div></foreignObject></g></g><g class="edgeLabel"><g class="label" transform="translate(0, 0)"><foreignObject width="0" height="0"><div xmlns="http://www.w3.org/1999/xhtml" style="display: inline-block; white-space: nowrap;"><span class="edgeLabel"></span></div></foreignObject></g></g><g class="edgeLabel"><g class="label" transform="translate(0, 0)"><foreignObject width="0" height="0"><div xmlns="http://www.w3.org/1999/xhtml" style="display: inline-block; white-space: nowrap;"><span class="edgeLabel"></span></div></foreignObject></g></g><g class="edgeLabel"><g class="label" transform="translate(0, 0)"><foreignObject width="0" height="0"><div xmlns="http://www.w3.org/1999/xhtml" style="display: inline-block; white-space: nowrap;"><span class="edgeLabel"></span></div></foreignObject></g></g><g class="edgeLabel"><g class="label" transform="translate(0, 0)"><foreignObject width="0" height="0"><div xmlns="http://www.w3.org/1999/xhtml" style="display: inline-block; white-space: nowrap;"><span class="edgeLabel"></span></div></foreignObject></g></g><g class="edgeLabel"><g class="label" transform="translate(0, 0)"><foreignObject width="0" height="0"><div xmlns="http://www.w3.org/1999/xhtml" style="display: inline-block; white-space: nowrap;"><span class="edgeLabel"></span></div></foreignObject></g></g><g class="edgeLabel"><g class="label" transform="translate(0, 0)"><foreignObject width="0" height="0"><div xmlns="http://www.w3.org/1999/xhtml" style="display: inline-block; white-space: nowrap;"><span class="edgeLabel"></span></div></foreignObject></g></g><g class="edgeLabel"><g class="label" transform="translate(0, 0)"><foreignObject width="0" height="0"><div xmlns="http://www.w3.org/1999/xhtml" style="display: inline-block; white-space: nowrap;"><span class="edgeLabel"></span></div></foreignObject></g></g><g class="edgeLabel"><g class="label" transform="translate(0, 0)"><foreignObject width="0" height="0"><div xmlns="http://www.w3.org/1999/xhtml" style="display: inline-block; white-space: nowrap;"><span class="edgeLabel"></span></div></foreignObject></g></g><g class="edgeLabel"><g class="label" transform="translate(0, 0)"><foreignObject width="0" height="0"><div xmlns="http://www.w3.org/1999/xhtml" style="display: inline-block; white-space: nowrap;"><span class="edgeLabel"></span></div></foreignObject></g></g><g class="edgeLabel"><g class="label" transform="translate(0, 0)"><foreignObject width="0" height="0"><div xmlns="http://www.w3.org/1999/xhtml" style="display: inline-block; white-space: nowrap;"><span class="edgeLabel"></span></div></foreignObject></g></g></g><g class="nodes"><g class="node default llm flowchart-label" id="flowchart-SUMMARY-69" data-node="true" data-id="SUMMARY" transform="translate(607.48046875, 3695.65625)"><rect class="basic label-container" style="" rx="0" ry="0" x="-164.359375" y="-43.5" width="328.71875" height="87"/><g class="label" style="" transform="translate(-156.859375, -36)"><rect/><foreignObject width="313.71875" height="72"><div xmlns="http://www.w3.org/1999/xhtml" style="display: inline-block; white-space: nowrap;"><span class="nodeLabel">会话摘要更新<br />始终保留最近 3 轮全文<br />每累积 3 个可摘要旧 turn 或超过阈值时更新</span></div></foreignObject></g></g><g class="node default llm flowchart-label" id="flowchart-MEMORY-70" data-node="true" data-id="MEMORY" transform="translate(607.48046875, 3824.65625)"><rect class="basic label-container" style="" rx="0" ry="0" x="-230.3359375" y="-43.5" width="460.671875" height="87"/><g class="label" style="" transform="translate(-222.8359375, -36)"><rect/><foreignObject width="445.671875" height="72"><div xmlns="http://www.w3.org/1999/xhtml" style="display: inline-block; white-space: nowrap;"><span class="nodeLabel">用户长期记忆更新<br />每 3 个新 turn 检查一次；明确‘请记住/纠正/忘记’可立即 flush<br />Extractor 提候选 → Critic 审核 → create/supersede/forget</span></div></foreignObject></g></g><g class="node default default flowchart-label" id="flowchart-TRACE-71" data-node="true" data-id="TRACE" transform="translate(607.48046875, 3953.65625)"><rect class="basic label-container" style="" rx="0" ry="0" x="-176.3828125" y="-43.5" width="352.765625" height="87"/><g class="label" style="" transform="translate(-168.8828125, -36)"><rect/><foreignObject width="337.765625" height="72"><div xmlns="http://www.w3.org/1999/xhtml" style="display: inline-block; white-space: nowrap;"><span class="nodeLabel">Trace V1 汇总并写入作者 traces/*.json<br />Planner JSON、搜索、四路召回、Parent 聚合<br />Prompt 元数据、各阶段耗时、Token、记忆更新</span></div></foreignObject></g></g><g class="node default default flowchart-label" id="flowchart-PACK-53" data-node="true" data-id="PACK" transform="translate(607.48046875, 2946.65625)"><rect class="basic label-container" style="" rx="0" ry="0" x="-142" y="-62.5" width="284" height="125"/><g class="label" style="" transform="translate(-134.5, -55)"><rect/><foreignObject width="269" height="110"><div xmlns="http://www.w3.org/1999/xhtml" style="display: inline-block; white-space: nowrap;"><span class="nodeLabel">build_writer_messages<br />MRPrompt + Narrative Schema<br />客观背景 + 用户记忆 + 会话摘要<br />历史消息 + Parent 全文 + 当前 query<br />完整数组见《MRPrompt 上下文窗口》</span></div></foreignObject></g></g><g class="node default default flowchart-label" id="flowchart-LIMIT-54" data-node="true" data-id="LIMIT" transform="translate(607.48046875, 3106.65625)"><rect class="basic label-container" style="" rx="0" ry="0" x="-158.1640625" y="-55.5" width="316.328125" height="111"/><g class="label" style="" transform="translate(-150.6640625, -48)"><rect/><foreignObject width="301.328125" height="96"><div xmlns="http://www.w3.org/1999/xhtml" style="display: inline-block; white-space: nowrap;"><span class="nodeLabel">动态输出上限 response_token_limit<br />参考检索 Top5 全文长度中位数<br />brief ≈ 0.55×，normal ≈ 1×，deep ≈ 1.35×<br />同时受全局 max_tokens 限制</span></div></foreignObject></g></g><g class="node default llm flowchart-label" id="flowchart-GENERATE-55" data-node="true" data-id="GENERATE" transform="translate(607.48046875, 3245.15625)"><rect class="basic label-container" style="" rx="0" ry="0" x="-114.9609375" y="-41" width="229.921875" height="82"/><g class="label" style="" transform="translate(-107.4609375, -33.5)"><rect/><foreignObject width="214.921875" height="67"><div xmlns="http://www.w3.org/1999/xhtml" style="display: inline-block; white-space: nowrap;"><span class="nodeLabel">LLM 调用 ③：Writer 流式生成<br />temperature=0.85<br />只输出作者式最终回答</span></div></foreignObject></g></g><g class="node default default flowchart-label" id="flowchart-TOKENS-56" data-node="true" data-id="TOKENS" transform="translate(607.48046875, 3383.65625)"><rect class="basic label-container" style="" rx="0" ry="0" x="-114.6484375" y="-55.5" width="229.296875" height="111"/><g class="label" style="" transform="translate(-107.1484375, -48)"><rect/><foreignObject width="214.296875" height="96"><div xmlns="http://www.w3.org/1999/xhtml" style="display: inline-block; white-space: nowrap;"><span class="nodeLabel">Token 分批持久化<br />更新 partial_answer<br />追加 token SSE event<br />记录 TTFT、生成耗时和 usage</span></div></foreignObject></g></g><g class="node default output flowchart-label" id="flowchart-DONE-57" data-node="true" data-id="DONE" transform="translate(607.48046875, 3524.65625)"><rect class="basic label-container" style="" rx="0" ry="0" x="-176.9609375" y="-43.5" width="353.921875" height="87"/><g class="label" style="" transform="translate(-169.4609375, -36)"><rect/><foreignObject width="338.921875" height="72"><div xmlns="http://www.w3.org/1999/xhtml" style="display: inline-block; white-space: nowrap;"><span class="nodeLabel">完成回答<br />保存 assistant message、Parent 来源、trace_id<br />发送 done SSE，React 渲染最终文本与引用</span></div></foreignObject></g></g><g class="node default default flowchart-label" id="flowchart-REUSE-45" data-node="true" data-id="REUSE" transform="translate(716.40625, 2744.65625)"><rect class="basic label-container" style="" rx="0" ry="0" x="-146.171875" y="-41" width="292.34375" height="82"/><g class="label" style="" transform="translate(-138.671875, -33.5)"><rect/><foreignObject width="277.34375" height="67"><div xmlns="http://www.w3.org/1999/xhtml" style="display: inline-block; white-space: nowrap;"><span class="nodeLabel">reuse<br />读取 evidence_source_turn_id<br />按上一轮 parent_ids 重载相同作者证据</span></div></foreignObject></g></g><g class="node default default flowchart-label" id="flowchart-NONE-46" data-node="true" data-id="NONE" transform="translate(1043.2265625, 2744.65625)"><rect class="basic label-container" style="" rx="0" ry="0" x="-148.6484375" y="-41" width="297.296875" height="82"/><g class="label" style="" transform="translate(-141.1484375, -33.5)"><rect/><foreignObject width="282.296875" height="67"><div xmlns="http://www.w3.org/1999/xhtml" style="display: inline-block; white-space: nowrap;"><span class="nodeLabel">none<br />casual / unclear 等场景<br />不查作者材料；unclear 只提出澄清问题</span></div></foreignObject></g></g><g class="node default decision flowchart-label" id="flowchart-WEB-30" data-node="true" data-id="WEB" transform="translate(221.640625, 2123.953125)"><polygon points="67.203125,0 134.40625,-67.203125 67.203125,-134.40625 0,-67.203125" class="label-container" transform="translate(-67.203125,67.203125)" style=""/><g class="label" style="" transform="translate(-42.703125, -9.5)"><rect/><foreignObject width="85.40625" height="19"><div xmlns="http://www.w3.org/1999/xhtml" style="display: inline-block; white-space: nowrap;"><span class="nodeLabel">needs_web?</span></div></foreignObject></g></g><g class="node default default flowchart-label" id="flowchart-TAVILY-31" data-node="true" data-id="TAVILY" transform="translate(178.22265625, 2300.65625)"><rect class="basic label-container" style="" rx="0" ry="0" x="-143.5" y="-43.5" width="287" height="87"/><g class="label" style="" transform="translate(-136, -36)"><rect/><foreignObject width="272" height="72"><div xmlns="http://www.w3.org/1999/xhtml" style="display: inline-block; white-space: nowrap;"><span class="nodeLabel">Tavily 搜索<br />查询题目涉及的新事件、新梗或歧义词<br />只补‘这题在说什么’，不搜索作者立场</span></div></foreignObject></g></g><g class="node default note flowchart-label" id="flowchart-FALLBACK-32" data-node="true" data-id="FALLBACK" transform="translate(251.78515625, 2453.65625)"><rect class="basic label-container" style="" rx="0" ry="0" x="-121.125" y="-43.5" width="242.25" height="87"/><g class="label" style="" transform="translate(-113.625, -36)"><rect/><foreignObject width="227.25" height="72"><div xmlns="http://www.w3.org/1999/xhtml" style="display: inline-block; white-space: nowrap;"><span class="nodeLabel">搜索失败降级<br />objective_background 保持为空<br />仍继续本地作者检索</span></div></foreignObject></g></g><g class="node default llm flowchart-label" id="flowchart-TRANSFORM-33" data-node="true" data-id="TRANSFORM" transform="translate(266.3046875, 2582.65625)"><rect class="basic label-container" style="" rx="0" ry="0" x="-167.609375" y="-43.5" width="335.21875" height="87"/><g class="label" style="" transform="translate(-160.109375, -36)"><rect/><foreignObject width="320.21875" height="72"><div xmlns="http://www.w3.org/1999/xhtml" style="display: inline-block; white-space: nowrap;"><span class="nodeLabel">LLM 调用 ②：Background + Query Transform<br />输出客观背景 + 四路本地检索表达<br />完整细节见《四路检索与 Parent 聚合》</span></div></foreignObject></g></g><g class="node default default flowchart-label" id="flowchart-RAG-34" data-node="true" data-id="RAG" transform="translate(266.3046875, 2744.65625)"><rect class="basic label-container" style="" rx="0" ry="0" x="-133.796875" y="-55.5" width="267.59375" height="111"/><g class="label" style="" transform="translate(-126.296875, -48)"><rect/><foreignObject width="252.59375" height="96"><div xmlns="http://www.w3.org/1999/xhtml" style="display: inline-block; white-space: nowrap;"><span class="nodeLabel">BGE-M3 + Qdrant 多路检索<br />4 路 query × Dense/Sparse<br />Child → Parent 两级 Rank-only RRF<br />最终 Parent Top20 全文</span></div></foreignObject></g></g><g class="node default api flowchart-label" id="flowchart-CLAIM-14" data-node="true" data-id="CLAIM" transform="translate(716.40625, 810.5)"><rect class="basic label-container" style="" rx="0" ry="0" x="-87.5" y="-41" width="175" height="82"/><g class="label" style="" transform="translate(-80, -33.5)"><rect/><foreignObject width="160" height="67"><div xmlns="http://www.w3.org/1999/xhtml" style="display: inline-block; white-space: nowrap;"><span class="nodeLabel">单 Worker claim_turn<br />queued → running<br />避免同一任务重复执行</span></div></foreignObject></g></g><g class="node default api flowchart-label" id="flowchart-ASSETS-15" data-node="true" data-id="ASSETS" transform="translate(716.40625, 972.5)"><rect class="basic label-container" style="" rx="0" ry="0" x="-216.09375" y="-55.5" width="432.1875" height="111"/><g class="label" style="" transform="translate(-208.59375, -48)"><rect/><foreignObject width="417.1875" height="96"><div xmlns="http://www.w3.org/1999/xhtml" style="display: inline-block; white-space: nowrap;"><span class="nodeLabel">加载作者与会话资产<br />Qdrant 子节点索引 + parents.jsonl 作者全文<br />Narrative Schema + 已完成 turns + 会话摘要<br />Schema 不存在时前端回退 Persona Pack 或 Strong Identity</span></div></foreignObject></g></g><g class="node default default flowchart-label" id="flowchart-MEMRECALL-16" data-node="true" data-id="MEMRECALL" transform="translate(716.40625, 1113.5)"><rect class="basic label-container" style="" rx="0" ry="0" x="-183.59375" y="-43.5" width="367.1875" height="87"/><g class="label" style="" transform="translate(-176.09375, -36)"><rect/><foreignObject width="352.1875" height="72"><div xmlns="http://www.w3.org/1999/xhtml" style="display: inline-block; white-space: nowrap;"><span class="nodeLabel">跨会话用户记忆召回<br />Query 与 User Memory 做 BGE-M3 Dense + Sparse<br />RRF 后取候选 Top8，交给 Planner 决定是否使用</span></div></foreignObject></g></g><g class="node default llm flowchart-label" id="flowchart-PLANNER-17" data-node="true" data-id="PLANNER" transform="translate(716.40625, 1240)"><rect class="basic label-container" style="" rx="0" ry="0" x="-183.5" y="-41" width="367" height="82"/><g class="label" style="" transform="translate(-176, -33.5)"><rect/><foreignObject width="352" height="67"><div xmlns="http://www.w3.org/1999/xhtml" style="display: inline-block; white-space: nowrap;"><span class="nodeLabel">LLM 调用 ①：Turn Planner<br />temperature=0<br />只做指代消解、路由和深度判断，不生成作者观点</span></div></foreignObject></g></g><g class="node default default flowchart-label" id="flowchart-PLANJSON-18" data-node="true" data-id="PLANJSON" transform="translate(716.40625, 1460)"><rect class="basic label-container" style="" rx="0" ry="0" x="-223.671875" y="-137" width="447.34375" height="274"/><g class="label" style="" transform="translate(-216.171875, -129.5)"><rect/><foreignObject width="432.34375" height="259"><div xmlns="http://www.w3.org/1999/xhtml" style="display: inline-block; white-space: nowrap;"><span class="nodeLabel">TurnPlan JSON<br /><b>turn_type</b>: follow_up（本轮属于什么对话动作）<br /><b>resolved_question</b>: 补全后的独立问题（供检索）<br /><b>retrieval_policy</b>: new/reuse/none（新检索、复用、跳过）<br /><b>evidence_source_turn_id</b>: ...（reuse 时证据来自哪轮）<br /><b>needs_web</b>: true/false（是否补客观背景）<br /><b>search_queries</b>: [...]（最多 3 条 Tavily 查询）<br /><b>response_depth</b>: brief/normal/deep（控制展开程度）<br /><b>clarification_focus</b>: ...（unclear 时只追问什么）<br /><b>memory_ids</b>: [...]（最多选 4 条用户记忆）<br /><b>memory_write_policy</b>: defer/flush（记忆延后或立即刷新）</span></div></foreignObject></g></g><g class="node default api flowchart-label" id="flowchart-HISTORY-19" data-node="true" data-id="HISTORY" transform="translate(716.40625, 1694.5)"><rect class="basic label-container" style="" rx="0" ry="0" x="-179.5625" y="-55.5" width="359.125" height="111"/><g class="label" style="" transform="translate(-172.0625, -48)"><rect/><foreignObject width="344.125" height="96"><div xmlns="http://www.w3.org/1999/xhtml" style="display: inline-block; white-space: nowrap;"><span class="nodeLabel">选择本轮会话上下文<br />新主题：不带旧 turns<br />短会话 ≤6 轮：保留全部<br />长会话：最近 3 轮 + 语义相关旧 2 轮 + 更早摘要</span></div></foreignObject></g></g><g class="node default decision flowchart-label" id="flowchart-ROUTE-20" data-node="true" data-id="ROUTE" transform="translate(716.40625, 1872.875)"><polygon points="80.875,0 161.75,-80.875 80.875,-161.75 0,-80.875" class="label-container" transform="translate(-80.875,80.875)" style=""/><g class="label" style="" transform="translate(-56.375, -9.5)"><rect/><foreignObject width="112.75" height="19"><div xmlns="http://www.w3.org/1999/xhtml" style="display: inline-block; white-space: nowrap;"><span class="nodeLabel">retrieval_policy</span></div></foreignObject></g></g><g class="node default api flowchart-label" id="flowchart-AUTH-4" data-node="true" data-id="AUTH" transform="translate(1237.73828125, 419.5)"><rect class="basic label-container" style="" rx="0" ry="0" x="-63.5" y="-31.5" width="127" height="63"/><g class="label" style="" transform="translate(-56, -24)"><rect/><foreignObject width="112" height="48"><div xmlns="http://www.w3.org/1999/xhtml" style="display: inline-block; white-space: nowrap;"><span class="nodeLabel">鉴权与用户隔离<br />识别 owner_id</span></div></foreignObject></g></g><g class="node default api flowchart-label" id="flowchart-GUARD-5" data-node="true" data-id="GUARD" transform="translate(1237.73828125, 524.5)"><rect class="basic label-container" style="" rx="0" ry="0" x="-103.5" y="-31.5" width="207" height="63"/><g class="label" style="" transform="translate(-96, -24)"><rect/><foreignObject width="192" height="48"><div xmlns="http://www.w3.org/1999/xhtml" style="display: inline-block; white-space: nowrap;"><span class="nodeLabel">部署保护<br />限流、并发额度、输入长度</span></div></foreignObject></g></g><g class="node default api flowchart-label" id="flowchart-TURN-6" data-node="true" data-id="TURN" transform="translate(1237.73828125, 651)"><rect class="basic label-container" style="" rx="0" ry="0" x="-98.203125" y="-53" width="196.40625" height="106"/><g class="label" style="" transform="translate(-90.703125, -45.5)"><rect/><foreignObject width="181.40625" height="91"><div xmlns="http://www.w3.org/1999/xhtml" style="display: inline-block; white-space: nowrap;"><span class="nodeLabel">SQLite 持久化 TurnRun<br /><b>status</b>: queued<br /><b>turn_id</b>: 新任务 ID<br /><b>conversation_id</b>: 会话 ID</span></div></foreignObject></g></g><g class="node default api flowchart-label" id="flowchart-ACCEPT-7" data-node="true" data-id="ACCEPT" transform="translate(1260.7265625, 810.5)"><rect class="basic label-container" style="" rx="0" ry="0" x="-151.5" y="-43.5" width="303" height="87"/><g class="label" style="" transform="translate(-144, -36)"><rect/><foreignObject width="288" height="72"><div xmlns="http://www.w3.org/1999/xhtml" style="display: inline-block; white-space: nowrap;"><span class="nodeLabel">立即返回 accepted SSE<br />React 随后监听持久化 turn events<br />页面可离开当前会话，后台任务继续执行</span></div></foreignObject></g></g><g class="node default client flowchart-label" id="flowchart-Q-0" data-node="true" data-id="Q" transform="translate(1237.73828125, 52.5)"><rect class="basic label-container" style="" rx="0" ry="0" x="-127.5" y="-31.5" width="255" height="63"/><g class="label" style="" transform="translate(-120, -24)"><rect/><foreignObject width="240" height="48"><div xmlns="http://www.w3.org/1999/xhtml" style="display: inline-block; white-space: nowrap;"><span class="nodeLabel">用户输入 query<br /><b>例：</b>为什么大多数人在嘲笑力工？</span></div></foreignObject></g></g><g class="node default client flowchart-label" id="flowchart-REQ-1" data-node="true" data-id="REQ" transform="translate(1237.73828125, 215)"><rect class="basic label-container" style="" rx="0" ry="0" x="-190.5" y="-89" width="381" height="178"/><g class="label" style="" transform="translate(-183, -81.5)"><rect/><foreignObject width="366" height="163"><div xmlns="http://www.w3.org/1999/xhtml" style="display: inline-block; white-space: nowrap;"><span class="nodeLabel">POST /api/chat/stream<br /><b>author</b>: &lt;author-token&gt;（选择哪个分身）<br /><b>session_id</b>: ...（绑定会话）<br /><b>query_mode</b>: grounded（启用理解、联网与 RAG）<br /><b>writer_prompt</b>: mrprompt（采用 MRPrompt）<br /><b>parent_top_k</b>: 20（最终作者全文数量）<br /><b>trace_capture</b>: summary/full（追踪粒度）</span></div></foreignObject></g></g></g></g></g></svg>