<svg id="my-svg" width="100%" xmlns="http://www.w3.org/2000/svg" xmlns:xlink="http://www.w3.org/1999/xlink" style="max-width: 1608.31px; background-color: transparent;" viewBox="-8 -8 1608.3125 1916" role="graphics-document document" aria-roledescription="flowchart-v2"><style>#my-svg{font-size:16px;fill:#16231f;}#my-svg .error-icon{fill:hsl(220.5882352941, 100%, 98.3333333333%);}#my-svg .error-text{fill:rgb(8.5000000002, 5.7500000001, 0);stroke:rgb(8.5000000002, 5.7500000001, 0);}#my-svg .edge-thickness-normal{stroke-width:2px;}#my-svg .edge-thickness-thick{stroke-width:3.5px;}#my-svg .edge-pattern-solid{stroke-dasharray:0;}#my-svg .edge-pattern-dashed{stroke-dasharray:3;}#my-svg .edge-pattern-dotted{stroke-dasharray:2;}#my-svg .marker{fill:#68746f;stroke:#68746f;}#my-svg .marker.cross{stroke:#68746f;}#my-svg svg{font-size:16px;}#my-svg .label{color:#16231f;}#my-svg .cluster-label text{fill:rgb(8.5000000002, 5.7500000001, 0);}#my-svg .cluster-label span,#my-svg p{color:rgb(8.5000000002, 5.7500000001, 0);}#my-svg .label text,#my-svg span,#my-svg p{fill:#16231f;color:#16231f;}#my-svg .node rect,#my-svg .node circle,#my-svg .node ellipse,#my-svg .node polygon,#my-svg .node path{fill:#fff4dd;stroke:hsl(40.5882352941, 60%, 83.3333333333%);stroke-width:1px;}#my-svg .flowchart-label text{text-anchor:middle;}#my-svg .node .katex path{fill:#000;stroke:#000;stroke-width:1px;}#my-svg .node .label{text-align:center;}#my-svg .node.clickable{cursor:pointer;}#my-svg .arrowheadPath{fill:#0b0b0b;}#my-svg .edgePath .path{stroke:#68746f;stroke-width:2.0px;}#my-svg .flowchart-link{stroke:#68746f;fill:none;}#my-svg .edgeLabel{background-color:hsl(-79.4117647059, 100%, 93.3333333333%);text-align:center;}#my-svg .edgeLabel rect{opacity:0.5;background-color:hsl(-79.4117647059, 100%, 93.3333333333%);fill:hsl(-79.4117647059, 100%, 93.3333333333%);}#my-svg .labelBkg{background-color:rgba(243.9999999999, 220.9999999998, 255, 0.5);}#my-svg .cluster rect{fill:hsl(220.5882352941, 100%, 98.3333333333%);stroke:hsl(220.5882352941, 60%, 88.3333333333%);stroke-width:1px;}#my-svg .cluster text{fill:rgb(8.5000000002, 5.7500000001, 0);}#my-svg .cluster span,#my-svg p{color:rgb(8.5000000002, 5.7500000001, 0);}#my-svg div.mermaidTooltip{position:absolute;text-align:center;max-width:200px;padding:2px;font-size:12px;background:hsl(220.5882352941, 100%, 98.3333333333%);border:1px solid hsl(220.5882352941, 60%, 88.3333333333%);border-radius:2px;pointer-events:none;z-index:100;}#my-svg .flowchartTitleText{text-anchor:middle;font-size:18px;fill:#16231f;}#my-svg :root{--mermaid-font-family:"trebuchet ms",verdana,arial,sans-serif;}#my-svg .input&gt;*{fill:rgb(237, 245, 241)!important;stroke:rgb(79, 124, 111)!important;stroke-width:1.5px!important;color:rgb(22, 35, 31)!important;}#my-svg .input span{fill:rgb(237, 245, 241)!important;stroke:rgb(79, 124, 111)!important;stroke-width:1.5px!important;color:rgb(22, 35, 31)!important;}#my-svg .input tspan{fill:rgb(22, 35, 31)!important;}#my-svg .transform&gt;*{fill:rgb(251, 242, 231)!important;stroke:rgb(167, 110, 53)!important;stroke-width:1.5px!important;color:rgb(43, 33, 24)!important;}#my-svg .transform span{fill:rgb(251, 242, 231)!important;stroke:rgb(167, 110, 53)!important;stroke-width:1.5px!important;color:rgb(43, 33, 24)!important;}#my-svg .transform tspan{fill:rgb(43, 33, 24)!important;}#my-svg .route&gt;*{fill:rgb(238, 244, 250)!important;stroke:rgb(82, 120, 154)!important;stroke-width:1.5px!important;color:rgb(22, 35, 31)!important;}#my-svg .route span{fill:rgb(238, 244, 250)!important;stroke:rgb(82, 120, 154)!important;stroke-width:1.5px!important;color:rgb(22, 35, 31)!important;}#my-svg .route tspan{fill:rgb(22, 35, 31)!important;}#my-svg .process&gt;*{fill:rgb(247, 247, 245)!important;stroke:rgb(119, 130, 125)!important;stroke-width:1.5px!important;color:rgb(23, 33, 29)!important;}#my-svg .process span{fill:rgb(247, 247, 245)!important;stroke:rgb(119, 130, 125)!important;stroke-width:1.5px!important;color:rgb(23, 33, 29)!important;}#my-svg .process tspan{fill:rgb(23, 33, 29)!important;}#my-svg .fusion&gt;*{fill:rgb(255, 248, 223)!important;stroke:rgb(170, 132, 45)!important;stroke-width:1.8px!important;color:rgb(43, 38, 23)!important;}#my-svg .fusion span{fill:rgb(255, 248, 223)!important;stroke:rgb(170, 132, 45)!important;stroke-width:1.8px!important;color:rgb(43, 38, 23)!important;}#my-svg .fusion tspan{fill:rgb(43, 38, 23)!important;}#my-svg .data&gt;*{fill:rgb(241, 239, 247)!important;stroke:rgb(120, 107, 148)!important;stroke-width:1.5px!important;color:rgb(33, 29, 43)!important;}#my-svg .data span{fill:rgb(241, 239, 247)!important;stroke:rgb(120, 107, 148)!important;stroke-width:1.5px!important;color:rgb(33, 29, 43)!important;}#my-svg .data tspan{fill:rgb(33, 29, 43)!important;}#my-svg .output&gt;*{fill:rgb(234, 246, 238)!important;stroke:rgb(60, 128, 96)!important;stroke-width:2px!important;color:rgb(19, 39, 30)!important;}#my-svg .output span{fill:rgb(234, 246, 238)!important;stroke:rgb(60, 128, 96)!important;stroke-width:2px!important;color:rgb(19, 39, 30)!important;}#my-svg .output tspan{fill:rgb(19, 39, 30)!important;}#my-svg .note&gt;*{fill:rgb(255, 255, 255)!important;stroke:rgb(139, 150, 145)!important;stroke-dasharray:5,4!important;color:rgb(57, 69, 64)!important;}#my-svg .note span{fill:rgb(255, 255, 255)!important;stroke:rgb(139, 150, 145)!important;stroke-dasharray:5,4!important;color:rgb(57, 69, 64)!important;}#my-svg .note tspan{fill:rgb(57, 69, 64)!important;}</style><g><marker id="my-svg_flowchart-pointEnd" class="marker flowchart" viewBox="0 0 10 10" refX="6" refY="5" markerUnits="userSpaceOnUse" markerWidth="12" markerHeight="12" orient="auto"><path d="M 0 0 L 10 5 L 0 10 z" class="arrowMarkerPath" style="stroke-width: 1; stroke-dasharray: 1, 0;"/></marker><marker id="my-svg_flowchart-pointStart" class="marker flowchart" viewBox="0 0 10 10" refX="4.5" refY="5" markerUnits="userSpaceOnUse" markerWidth="12" markerHeight="12" orient="auto"><path d="M 0 5 L 10 10 L 10 0 z" class="arrowMarkerPath" style="stroke-width: 1; stroke-dasharray: 1, 0;"/></marker><marker id="my-svg_flowchart-circleEnd" class="marker flowchart" viewBox="0 0 10 10" refX="11" refY="5" markerUnits="userSpaceOnUse" markerWidth="11" markerHeight="11" orient="auto"><circle cx="5" cy="5" r="5" class="arrowMarkerPath" style="stroke-width: 1; stroke-dasharray: 1, 0;"/></marker><marker id="my-svg_flowchart-circleStart" class="marker flowchart" viewBox="0 0 10 10" refX="-1" refY="5" markerUnits="userSpaceOnUse" markerWidth="11" markerHeight="11" orient="auto"><circle cx="5" cy="5" r="5" class="arrowMarkerPath" style="stroke-width: 1; stroke-dasharray: 1, 0;"/></marker><marker id="my-svg_flowchart-crossEnd" class="marker cross flowchart" viewBox="0 0 11 11" refX="12" refY="5.2" markerUnits="userSpaceOnUse" markerWidth="11" markerHeight="11" orient="auto"><path d="M 1,1 l 9,9 M 10,1 l -9,9" class="arrowMarkerPath" style="stroke-width: 2; stroke-dasharray: 1, 0;"/></marker><marker id="my-svg_flowchart-crossStart" class="marker cross flowchart" viewBox="0 0 11 11" refX="-1" refY="5.2" markerUnits="userSpaceOnUse" markerWidth="11" markerHeight="11" orient="auto"><path d="M 1,1 l 9,9 M 10,1 l -9,9" class="arrowMarkerPath" style="stroke-width: 2; stroke-dasharray: 1, 0;"/></marker><g class="root"><g class="clusters"><g class="cluster default flowchart-label" id="ENCODE"><rect style="" rx="0" ry="0" x="129.19921875" y="596" width="1250.73828125" height="248"/><g class="cluster-label" transform="translate(610.716796875, 596)"><foreignObject width="287.703125" height="24"><div xmlns="http://www.w3.org/1999/xhtml" style="display: inline-block; white-space: nowrap;"><span class="nodeLabel">每一路独立执行相同的 BGE-M3 混合召回</span></div></foreignObject></g></g><g class="cluster default flowchart-label" id="ROUTES"><rect style="" rx="0" ry="0" x="47.4375" y="430" width="1488" height="124"/><g class="cluster-label" transform="translate(617.875, 430)"><foreignObject width="347.125" height="24"><div xmlns="http://www.w3.org/1999/xhtml" style="display: inline-block; white-space: nowrap;"><span class="nodeLabel">四路 Query Transform：同一问题的四种检索视角</span></div></foreignObject></g></g></g><g class="edgePaths"><path d="M859.963,111L846.542,116.083C833.121,121.167,806.279,131.333,792.858,140.617C779.438,149.9,779.438,158.3,779.438,162.5L779.438,166.7" id="L-INPUT-QT-0" class="edge-thickness-normal edge-pattern-solid flowchart-link LS-INPUT LE-QT" style="fill:none;" marker-end="url(#my-svg_flowchart-pointEnd)"/><path d="M779.438,259L779.438,262.5C779.438,266,779.438,273,779.438,279.117C779.438,285.233,779.438,290.467,779.438,293.083L779.438,295.7" id="L-QT-JSON-0" class="edge-thickness-normal edge-pattern-solid flowchart-link LS-QT LE-JSON" style="fill:none;" marker-end="url(#my-svg_flowchart-pointEnd)"/><path d="M514.375,375.222L465.802,380.851C417.229,386.481,320.083,397.741,271.51,406.87C222.938,416,222.938,423,222.938,429.117C222.938,435.233,222.938,440.467,222.938,443.083L222.938,445.7" id="L-JSON-LIT-0" class="edge-thickness-normal edge-pattern-solid flowchart-link LS-JSON LE-LIT" style="fill:none;" marker-end="url(#my-svg_flowchart-pointEnd)"/><path d="M643.542,388L632.608,391.5C621.674,395,599.806,402,588.872,409C577.938,416,577.938,423,577.938,429.117C577.938,435.233,577.938,440.467,577.938,443.083L577.938,445.7" id="L-JSON-EVENT-0" class="edge-thickness-normal edge-pattern-solid flowchart-link LS-JSON LE-EVENT" style="fill:none;" marker-end="url(#my-svg_flowchart-pointEnd)"/><path d="M915.333,388L926.267,391.5C937.201,395,959.069,402,970.003,409C980.938,416,980.938,423,980.938,431.117C980.938,439.233,980.938,448.467,980.938,453.083L980.938,457.7" id="L-JSON-MECH-0" class="edge-thickness-normal edge-pattern-solid flowchart-link LS-JSON LE-MECH" style="fill:none;" marker-end="url(#my-svg_flowchart-pointEnd)"/><path d="M1044.5,373.951L1097.073,379.793C1149.646,385.634,1254.792,397.317,1307.365,406.659C1359.938,416,1359.938,423,1359.938,429.117C1359.938,435.233,1359.938,440.467,1359.938,443.083L1359.938,445.7" id="L-JSON-TALK-0" class="edge-thickness-normal edge-pattern-solid flowchart-link LS-JSON LE-TALK" style="fill:none;" marker-end="url(#my-svg_flowchart-pointEnd)"/><path d="M516.656,694.477L475.019,702.731C433.382,710.985,350.107,727.492,308.469,738.363C266.832,749.233,266.832,754.467,266.832,757.083L266.832,759.7" id="L-E-D-0" class="edge-thickness-normal edge-pattern-solid flowchart-link LS-E LE-D" style="fill:none;" marker-end="url(#my-svg_flowchart-pointEnd)"/><path d="M763.609,685.323L842.414,695.103C921.219,704.882,1078.828,724.441,1157.633,736.837C1236.438,749.233,1236.438,754.467,1236.438,757.083L1236.438,759.7" id="L-E-S-0" class="edge-thickness-normal edge-pattern-solid flowchart-link LS-E LE-S" style="fill:none;" marker-end="url(#my-svg_flowchart-pointEnd)"/><path d="M222.938,533L222.938,536.5C222.938,540,222.938,547,222.938,554C222.938,561,222.938,568,222.938,575C222.938,582,222.938,589,271.021,601.029C319.104,613.058,415.271,630.115,463.354,638.644L511.438,647.173" id="L-LIT-E-0" class="edge-thickness-normal edge-pattern-solid flowchart-link LS-LIT LE-E" style="fill:none;" marker-end="url(#my-svg_flowchart-pointEnd)"/><path d="M577.938,533L577.938,536.5C577.938,540,577.938,547,577.938,554C577.938,561,577.938,568,577.938,575C577.938,582,577.938,589,580.311,595.324C582.684,601.648,587.431,607.295,589.804,610.119L592.177,612.943" id="L-EVENT-E-0" class="edge-thickness-normal edge-pattern-solid flowchart-link LS-EVENT LE-E" style="fill:none;" marker-end="url(#my-svg_flowchart-pointEnd)"/><path d="M980.938,521L980.938,526.5C980.938,532,980.938,543,980.938,552C980.938,561,980.938,568,980.938,575C980.938,582,980.938,589,945.579,600.177C910.221,611.355,839.505,626.71,804.147,634.387L768.789,642.065" id="L-MECH-E-0" class="edge-thickness-normal edge-pattern-solid flowchart-link LS-MECH LE-E" style="fill:none;" marker-end="url(#my-svg_flowchart-pointEnd)"/><path d="M1359.938,533L1359.938,536.5C1359.938,540,1359.938,547,1359.938,554C1359.938,561,1359.938,568,1359.938,575C1359.938,582,1359.938,589,1261.428,602.627C1162.919,616.255,965.9,636.509,867.391,646.637L768.882,656.764" id="L-TALK-E-0" class="edge-thickness-normal edge-pattern-solid flowchart-link LS-TALK LE-E" style="fill:none;" marker-end="url(#my-svg_flowchart-pointEnd)"/><path d="M241.373,823L238.301,826.5C235.228,830,229.083,837,226.01,844C222.938,851,222.938,858,223.234,864.122C223.53,870.245,224.123,875.489,224.419,878.111L224.715,880.734" id="L-D-CHILD-0" class="edge-thickness-normal edge-pattern-solid flowchart-link LS-D LE-CHILD" style="fill:none;" marker-end="url(#my-svg_flowchart-pointEnd)"/><path d="M1116.938,806.028L1054.063,812.357C991.188,818.685,865.438,831.343,802.563,841.171C739.688,851,739.688,858,693.804,869.513C647.92,881.026,556.153,897.053,510.269,905.066L464.385,913.079" id="L-S-CHILD-0" class="edge-thickness-normal edge-pattern-solid flowchart-link LS-S LE-CHILD" style="fill:none;" marker-end="url(#my-svg_flowchart-pointEnd)"/><path d="M232.938,1021L232.938,1024.5C232.938,1028,232.938,1035,232.938,1041.117C232.938,1047.233,232.938,1052.467,232.938,1055.083L232.938,1057.7" id="L-CHILD-DEDUP-0" class="edge-thickness-normal edge-pattern-solid flowchart-link LS-CHILD LE-DEDUP" style="fill:none;" marker-end="url(#my-svg_flowchart-pointEnd)"/><path d="M232.938,1150L232.938,1153.5C232.938,1157,232.938,1164,232.938,1170.117C232.938,1176.233,232.938,1181.467,232.938,1184.083L232.938,1186.7" id="L-DEDUP-RRF1-0" class="edge-thickness-normal edge-pattern-solid flowchart-link LS-DEDUP LE-RRF1" style="fill:none;" marker-end="url(#my-svg_flowchart-pointEnd)"/><path d="M232.938,1298L232.938,1301.5C232.938,1305,232.938,1312,232.938,1320.533C232.938,1329.067,232.938,1339.133,232.938,1344.167L232.938,1349.2" id="L-RRF1-FOUR-0" class="edge-thickness-normal edge-pattern-solid flowchart-link LS-RRF1 LE-FOUR" style="fill:none;" marker-end="url(#my-svg_flowchart-pointEnd)"/><path d="M232.938,1436.5L232.938,1442.417C232.938,1448.333,232.938,1460.167,344.388,1476.095C455.839,1492.024,678.741,1512.048,790.192,1522.06L901.643,1532.072" id="L-FOUR-RRF2-0" class="edge-thickness-normal edge-pattern-solid flowchart-link LS-FOUR LE-RRF2" style="fill:none;" marker-end="url(#my-svg_flowchart-pointEnd)"/><path d="M1056.688,1599L1056.688,1602.5C1056.688,1606,1056.688,1613,1056.688,1619.117C1056.688,1625.233,1056.688,1630.467,1056.688,1633.083L1056.688,1635.7" id="L-RRF2-LOAD-0" class="edge-thickness-normal edge-pattern-solid flowchart-link LS-RRF2 LE-LOAD" style="fill:none;" marker-end="url(#my-svg_flowchart-pointEnd)"/><path d="M949.45,1728L940.821,1731.5C932.193,1735,914.936,1742,906.308,1748.117C897.68,1754.233,897.68,1759.467,897.68,1762.083L897.68,1764.7" id="L-LOAD-OUTPUT-0" class="edge-thickness-normal edge-pattern-solid flowchart-link LS-LOAD LE-OUTPUT" style="fill:none;" marker-end="url(#my-svg_flowchart-pointEnd)"/><path d="M370.621,803.292L446.406,810.076C522.191,816.861,673.762,830.431,749.547,840.715C825.332,851,825.332,858,890.154,872.648C954.975,887.296,1084.618,909.591,1149.44,920.739L1214.261,931.887" id="L-D-COLLECTION-0" class="edge-thickness-normal edge-pattern-solid flowchart-link LS-D LE-COLLECTION" style="fill:none;" marker-end="url(#my-svg_flowchart-pointEnd)"/><path d="M1308.068,823L1316.713,826.5C1325.358,830,1342.648,837,1351.293,844C1359.938,851,1359.938,858,1358.915,866.039C1357.892,874.077,1355.846,883.155,1354.824,887.693L1353.801,892.232" id="L-S-COLLECTION-0" class="edge-thickness-normal edge-pattern-solid flowchart-link LS-S LE-COLLECTION" style="fill:none;" marker-end="url(#my-svg_flowchart-pointEnd)"/><path d="M1163.925,1728L1172.554,1731.5C1181.182,1735,1198.439,1742,1207.067,1750.471C1215.695,1758.942,1215.695,1768.883,1215.695,1773.854L1215.695,1778.825" id="L-LOAD-PARENTS-0" class="edge-thickness-normal edge-pattern-solid flowchart-link LS-LOAD LE-PARENTS" style="fill:none;" marker-end="url(#my-svg_flowchart-pointEnd)"/><path d="M1153.022,111L1166.443,116.083C1179.863,121.167,1206.705,131.333,1220.126,140.617C1233.547,149.9,1233.547,158.3,1233.547,162.5L1233.547,166.7" id="L-INPUT-RAW-0" class="edge-thickness-normal edge-pattern-dotted flowchart-link LS-INPUT LE-RAW" style="fill:none;stroke-width:2px;stroke-dasharray:3;" marker-end="url(#my-svg_flowchart-pointEnd)"/><path d="M1295.094,1451L1295.094,1454.5C1295.094,1458,1295.094,1465,1281.164,1472.824C1267.234,1480.647,1239.375,1489.295,1225.445,1493.619L1211.515,1497.942" id="L-NOTE-RRF2-0" class="edge-thickness-normal edge-pattern-dotted flowchart-link LS-NOTE LE-RRF2" style="fill:none;stroke-width:2px;stroke-dasharray:3;" marker-end="url(#my-svg_flowchart-pointEnd)"/></g><g class="edgeLabels"><g class="edgeLabel"><g class="label" transform="translate(0, 0)"><foreignObject width="0" height="0"><div xmlns="http://www.w3.org/1999/xhtml" style="display: inline-block; white-space: nowrap;"><span class="edgeLabel"></span></div></foreignObject></g></g><g class="edgeLabel"><g class="label" transform="translate(0, 0)"><foreignObject width="0" height="0"><div xmlns="http://www.w3.org/1999/xhtml" style="display: inline-block; white-space: nowrap;"><span class="edgeLabel"></span></div></foreignObject></g></g><g class="edgeLabel"><g class="label" transform="translate(0, 0)"><foreignObject width="0" height="0"><div xmlns="http://www.w3.org/1999/xhtml" style="display: inline-block; white-space: nowrap;"><span class="edgeLabel"></span></div></foreignObject></g></g><g class="edgeLabel"><g class="label" transform="translate(0, 0)"><foreignObject width="0" height="0"><div xmlns="http://www.w3.org/1999/xhtml" style="display: inline-block; white-space: nowrap;"><span class="edgeLabel"></span></div></foreignObject></g></g><g class="edgeLabel"><g class="label" transform="translate(0, 0)"><foreignObject width="0" height="0"><div xmlns="http://www.w3.org/1999/xhtml" style="display: inline-block; white-space: nowrap;"><span class="edgeLabel"></span></div></foreignObject></g></g><g class="edgeLabel"><g class="label" transform="translate(0, 0)"><foreignObject width="0" height="0"><div xmlns="http://www.w3.org/1999/xhtml" style="display: inline-block; white-space: nowrap;"><span class="edgeLabel"></span></div></foreignObject></g></g><g class="edgeLabel"><g class="label" transform="translate(0, 0)"><foreignObject width="0" height="0"><div xmlns="http://www.w3.org/1999/xhtml" style="display: inline-block; white-space: nowrap;"><span class="edgeLabel"></span></div></foreignObject></g></g><g class="edgeLabel"><g class="label" transform="translate(0, 0)"><foreignObject width="0" height="0"><div xmlns="http://www.w3.org/1999/xhtml" style="display: inline-block; white-space: nowrap;"><span class="edgeLabel"></span></div></foreignObject></g></g><g class="edgeLabel"><g class="label" transform="translate(0, 0)"><foreignObject width="0" height="0"><div xmlns="http://www.w3.org/1999/xhtml" style="display: inline-block; white-space: nowrap;"><span class="edgeLabel"></span></div></foreignObject></g></g><g class="edgeLabel"><g class="label" transform="translate(0, 0)"><foreignObject width="0" height="0"><div xmlns="http://www.w3.org/1999/xhtml" style="display: inline-block; white-space: nowrap;"><span class="edgeLabel"></span></div></foreignObject></g></g><g class="edgeLabel"><g class="label" transform="translate(0, 0)"><foreignObject width="0" height="0"><div xmlns="http://www.w3.org/1999/xhtml" style="display: inline-block; white-space: nowrap;"><span class="edgeLabel"></span></div></foreignObject></g></g><g class="edgeLabel"><g class="label" transform="translate(0, 0)"><foreignObject width="0" height="0"><div xmlns="http://www.w3.org/1999/xhtml" style="display: inline-block; white-space: nowrap;"><span class="edgeLabel"></span></div></foreignObject></g></g><g class="edgeLabel"><g class="label" transform="translate(0, 0)"><foreignObject width="0" height="0"><div xmlns="http://www.w3.org/1999/xhtml" style="display: inline-block; white-space: nowrap;"><span class="edgeLabel"></span></div></foreignObject></g></g><g class="edgeLabel"><g class="label" transform="translate(0, 0)"><foreignObject width="0" height="0"><div xmlns="http://www.w3.org/1999/xhtml" style="display: inline-block; white-space: nowrap;"><span class="edgeLabel"></span></div></foreignObject></g></g><g class="edgeLabel"><g class="label" transform="translate(0, 0)"><foreignObject width="0" height="0"><div xmlns="http://www.w3.org/1999/xhtml" style="display: inline-block; white-space: nowrap;"><span class="edgeLabel"></span></div></foreignObject></g></g><g class="edgeLabel"><g class="label" transform="translate(0, 0)"><foreignObject width="0" height="0"><div xmlns="http://www.w3.org/1999/xhtml" style="display: inline-block; white-space: nowrap;"><span class="edgeLabel"></span></div></foreignObject></g></g><g class="edgeLabel"><g class="label" transform="translate(0, 0)"><foreignObject width="0" height="0"><div xmlns="http://www.w3.org/1999/xhtml" style="display: inline-block; white-space: nowrap;"><span class="edgeLabel"></span></div></foreignObject></g></g><g class="edgeLabel"><g class="label" transform="translate(0, 0)"><foreignObject width="0" height="0"><div xmlns="http://www.w3.org/1999/xhtml" style="display: inline-block; white-space: nowrap;"><span class="edgeLabel"></span></div></foreignObject></g></g><g class="edgeLabel"><g class="label" transform="translate(0, 0)"><foreignObject width="0" height="0"><div xmlns="http://www.w3.org/1999/xhtml" style="display: inline-block; white-space: nowrap;"><span class="edgeLabel"></span></div></foreignObject></g></g><g class="edgeLabel"><g class="label" transform="translate(0, 0)"><foreignObject width="0" height="0"><div xmlns="http://www.w3.org/1999/xhtml" style="display: inline-block; white-space: nowrap;"><span class="edgeLabel"></span></div></foreignObject></g></g><g class="edgeLabel"><g class="label" transform="translate(0, 0)"><foreignObject width="0" height="0"><div xmlns="http://www.w3.org/1999/xhtml" style="display: inline-block; white-space: nowrap;"><span class="edgeLabel"></span></div></foreignObject></g></g><g class="edgeLabel"><g class="label" transform="translate(0, 0)"><foreignObject width="0" height="0"><div xmlns="http://www.w3.org/1999/xhtml" style="display: inline-block; white-space: nowrap;"><span class="edgeLabel"></span></div></foreignObject></g></g><g class="edgeLabel"><g class="label" transform="translate(0, 0)"><foreignObject width="0" height="0"><div xmlns="http://www.w3.org/1999/xhtml" style="display: inline-block; white-space: nowrap;"><span class="edgeLabel"></span></div></foreignObject></g></g><g class="edgeLabel" transform="translate(1233.546875, 141.5)"><g class="label" transform="translate(-61.65625, -9.5)"><foreignObject width="123.3125" height="19"><div xmlns="http://www.w3.org/1999/xhtml" style="display: inline-block; white-space: nowrap;"><span class="edgeLabel">query_mode=raw</span></div></foreignObject></g></g><g class="edgeLabel"><g class="label" transform="translate(0, 0)"><foreignObject width="0" height="0"><div xmlns="http://www.w3.org/1999/xhtml" style="display: inline-block; white-space: nowrap;"><span class="edgeLabel"></span></div></foreignObject></g></g></g><g class="nodes"><g class="node default process flowchart-label" id="flowchart-E-18" data-node="true" data-id="E" transform="translate(640.1328125, 670)"><rect class="basic label-container" style="" rx="0" ry="0" x="-123.4765625" y="-53" width="246.953125" height="106"/><g class="label" style="" transform="translate(-115.9765625, -45.5)"><rect/><foreignObject width="231.953125" height="91"><div xmlns="http://www.w3.org/1999/xhtml" style="display: inline-block; white-space: nowrap;"><span class="nodeLabel">BGE-M3 encode_texts(query)<br />一次编码同时得到<br /><b>dense</b>: 语义向量<br /><b>sparse</b>: token→weight 稀疏向量</span></div></foreignObject></g></g><g class="node default process flowchart-label" id="flowchart-D-19" data-node="true" data-id="D" transform="translate(266.83203125, 794)"><rect class="basic label-container" style="" rx="0" ry="0" x="-103.7890625" y="-29" width="207.578125" height="58"/><g class="label" style="" transform="translate(-96.2890625, -21.5)"><rect/><foreignObject width="192.578125" height="43"><div xmlns="http://www.w3.org/1999/xhtml" style="display: inline-block; white-space: nowrap;"><span class="nodeLabel">Qdrant Dense Top100 Child<br />按向量语义相近度排序</span></div></foreignObject></g></g><g class="node default process flowchart-label" id="flowchart-S-20" data-node="true" data-id="S" transform="translate(1236.4375, 794)"><rect class="basic label-container" style="" rx="0" ry="0" x="-119.5" y="-29" width="239" height="58"/><g class="label" style="" transform="translate(-112, -21.5)"><rect/><foreignObject width="224" height="43"><div xmlns="http://www.w3.org/1999/xhtml" style="display: inline-block; white-space: nowrap;"><span class="nodeLabel">Qdrant Sparse Top100 Child<br />按学习得到的词项权重匹配排序</span></div></foreignObject></g></g><g class="node default route flowchart-label" id="flowchart-LIT-6" data-node="true" data-id="LIT" transform="translate(222.9375, 492)"><rect class="basic label-container" style="" rx="0" ry="0" x="-151.5" y="-41" width="303" height="82"/><g class="label" style="" transform="translate(-144, -33.5)"><rect/><foreignObject width="288" height="67"><div xmlns="http://www.w3.org/1999/xhtml" style="display: inline-block; white-space: nowrap;"><span class="nodeLabel"><b>literal_question</b><br />保留题目字面含义<br />多轮场景使用已补全问题，不增加新框架</span></div></foreignObject></g></g><g class="node default route flowchart-label" id="flowchart-EVENT-7" data-node="true" data-id="EVENT" transform="translate(577.9375, 492)"><rect class="basic label-container" style="" rx="0" ry="0" x="-175.5" y="-41" width="351" height="82"/><g class="label" style="" transform="translate(-168, -33.5)"><rect/><foreignObject width="336" height="67"><div xmlns="http://www.w3.org/1999/xhtml" style="display: inline-block; white-space: nowrap;"><span class="nodeLabel"><b>event_background</b><br />有联网结果时保留事件实体、关键词和关键事实<br />无背景时接近 literal</span></div></foreignObject></g></g><g class="node default route flowchart-label" id="flowchart-MECH-8" data-node="true" data-id="MECH" transform="translate(980.9375, 492)"><rect class="basic label-container" style="" rx="0" ry="0" x="-199.5" y="-29" width="399" height="58"/><g class="label" style="" transform="translate(-192, -21.5)"><rect/><foreignObject width="384" height="43"><div xmlns="http://www.w3.org/1999/xhtml" style="display: inline-block; white-space: nowrap;"><span class="nodeLabel"><b>mechanism_scene</b><br />改写为具体关系机制、行为动机、冲突场景和日常动作</span></div></foreignObject></g></g><g class="node default route flowchart-label" id="flowchart-TALK-9" data-node="true" data-id="TALK" transform="translate(1359.9375, 492)"><rect class="basic label-container" style="" rx="0" ry="0" x="-151.5" y="-41" width="303" height="82"/><g class="label" style="" transform="translate(-144, -33.5)"><rect/><foreignObject width="288" height="67"><div xmlns="http://www.w3.org/1999/xhtml" style="display: inline-block; white-space: nowrap;"><span class="nodeLabel"><b>colloquial_surface</b><br />改成知乎常见口语、网络表达和短词组合<br />帮助 Sparse 词项命中</span></div></foreignObject></g></g><g class="node default input flowchart-label" id="flowchart-INPUT-0" data-node="true" data-id="INPUT" transform="translate(1006.4921875, 55.5)"><rect class="basic label-container" style="" rx="0" ry="0" x="-215.25" y="-55.5" width="430.5" height="111"/><g class="label" style="" transform="translate(-207.75, -48)"><rect/><foreignObject width="415.5" height="96"><div xmlns="http://www.w3.org/1999/xhtml" style="display: inline-block; white-space: nowrap;"><span class="nodeLabel">检索输入<br /><b>query</b>: 用户当前原话<br /><b>resolved_question</b>: Planner 做最小指代补全后的独立问题<br /><b>search_results</b>: Tavily 结果，可为空</span></div></foreignObject></g></g><g class="node default transform flowchart-label" id="flowchart-QT-1" data-node="true" data-id="QT" transform="translate(779.4375, 215.5)"><rect class="basic label-container" style="" rx="0" ry="0" x="-167.5" y="-43.5" width="335" height="87"/><g class="label" style="" transform="translate(-160, -36)"><rect/><foreignObject width="320" height="72"><div xmlns="http://www.w3.org/1999/xhtml" style="display: inline-block; white-space: nowrap;"><span class="nodeLabel">LLM：Background + Query Transform<br />temperature=0，max_tokens=1400<br />不预测作者立场，只生成客观背景和检索表达</span></div></foreignObject></g></g><g class="node default transform flowchart-label" id="flowchart-JSON-2" data-node="true" data-id="JSON" transform="translate(779.4375, 344.5)"><rect class="basic label-container" style="" rx="0" ry="0" x="-265.0625" y="-43.5" width="530.125" height="87"/><g class="label" style="" transform="translate(-257.5625, -36)"><rect/><foreignObject width="515.125" height="72"><div xmlns="http://www.w3.org/1999/xhtml" style="display: inline-block; white-space: nowrap;"><span class="nodeLabel">输出 JSON<br /><b>objective_background</b>: 最多 1–2 句，只解释词义、人物、事件或梗<br /><b>retrieval_queries</b>: 固定四个对象；缺失路线自动回退 resolved_question</span></div></foreignObject></g></g><g class="node default process flowchart-label" id="flowchart-CHILD-33" data-node="true" data-id="CHILD" transform="translate(232.9375, 953.5)"><rect class="basic label-container" style="" rx="0" ry="0" x="-226.2265625" y="-67.5" width="452.453125" height="135"/><g class="label" style="" transform="translate(-218.7265625, -60)"><rect/><foreignObject width="437.453125" height="120"><div xmlns="http://www.w3.org/1999/xhtml" style="display: inline-block; white-space: nowrap;"><span class="nodeLabel">Child 命中记录<br /><b>node_type</b>: title / lead / passage（full 模式可有 summary）<br /><b>parent_id</b>: 指向完整回答、文章或想法<br /><b>rank</b>: 当前 Dense/Sparse 路线内名次<br /><b>score</b>: Qdrant 原始相似度，仅用于该路线排序</span></div></foreignObject></g></g><g class="node default process flowchart-label" id="flowchart-DEDUP-38" data-node="true" data-id="DEDUP" transform="translate(232.9375, 1106.5)"><rect class="basic label-container" style="" rx="0" ry="0" x="-224.2890625" y="-43.5" width="448.578125" height="87"/><g class="label" style="" transform="translate(-216.7890625, -36)"><rect/><foreignObject width="433.578125" height="72"><div xmlns="http://www.w3.org/1999/xhtml" style="display: inline-block; white-space: nowrap;"><span class="nodeLabel">每条 Dense/Sparse 列表先按 Parent 去重<br />同一长文多个 Child 命中时，只保留该路线首次出现的 Parent<br />避免长文因切片多而重复加分</span></div></foreignObject></g></g><g class="node default fusion flowchart-label" id="flowchart-RRF1-39" data-node="true" data-id="RRF1" transform="translate(232.9375, 1245)"><rect class="basic label-container" style="" rx="0" ry="0" x="-232.9375" y="-53" width="465.875" height="106"/><g class="label" style="" transform="translate(-225.4375, -45.5)"><rect/><foreignObject width="450.875" height="91"><div xmlns="http://www.w3.org/1999/xhtml" style="display: inline-block; white-space: nowrap;"><span class="nodeLabel">第一层 Parent RRF：同一 transform 路线内融合 Dense + Sparse<br /><b>score(parent)</b> = Σ 1 / (60 + rank)<br />只使用名次，不跨模型比较原始相似度<br />每路保留 Parent Top30</span></div></foreignObject></g></g><g class="node default process flowchart-label" id="flowchart-FOUR-43" data-node="true" data-id="FOUR" transform="translate(232.9375, 1395.5)"><rect class="basic label-container" style="" rx="0" ry="0" x="-151.59375" y="-41" width="303.1875" height="82"/><g class="label" style="" transform="translate(-144.09375, -33.5)"><rect/><foreignObject width="288.1875" height="67"><div xmlns="http://www.w3.org/1999/xhtml" style="display: inline-block; white-space: nowrap;"><span class="nodeLabel">得到四份 Parent 排名<br />literal / event / mechanism / colloquial<br />每路分别保留 Parent Top30</span></div></foreignObject></g></g><g class="node default fusion flowchart-label" id="flowchart-RRF2-46" data-node="true" data-id="RRF2" transform="translate(1056.6875, 1546)"><rect class="basic label-container" style="" rx="0" ry="0" x="-149.765625" y="-53" width="299.53125" height="106"/><g class="label" style="" transform="translate(-142.265625, -45.5)"><rect/><foreignObject width="284.53125" height="91"><div xmlns="http://www.w3.org/1999/xhtml" style="display: inline-block; white-space: nowrap;"><span class="nodeLabel">第二层跨路线 Parent RRF<br />再次按 Parent 去重并累计四路名次贡献<br /><b>score(parent)</b> = Σ 1 / (60 + route_rank)<br />最终截取 Parent Top20</span></div></foreignObject></g></g><g class="node default process flowchart-label" id="flowchart-LOAD-49" data-node="true" data-id="LOAD" transform="translate(1056.6875, 1684.5)"><rect class="basic label-container" style="" rx="0" ry="0" x="-221.0234375" y="-43.5" width="442.046875" height="87"/><g class="label" style="" transform="translate(-213.5234375, -36)"><rect/><foreignObject width="427.046875" height="72"><div xmlns="http://www.w3.org/1999/xhtml" style="display: inline-block; white-space: nowrap;"><span class="nodeLabel">从 parents.jsonl 加载 Top20 全文<br />Writer 获得：标题 + 完整正文<br />Writer 不获得：向量分数、Child 命中、路由名或本地文件名</span></div></foreignObject></g></g><g class="node default output flowchart-label" id="flowchart-OUTPUT-50" data-node="true" data-id="OUTPUT" transform="translate(897.6796875, 1835)"><rect class="basic label-container" style="" rx="0" ry="0" x="-202.515625" y="-65" width="405.03125" height="130"/><g class="label" style="" transform="translate(-195.015625, -57.5)"><rect/><foreignObject width="390.03125" height="115"><div xmlns="http://www.w3.org/1999/xhtml" style="display: inline-block; white-space: nowrap;"><span class="nodeLabel">RetrieveResult<br /><b>routes</b>: 8 条 Child 路线及命中（只进 Trace）<br /><b>parents</b>: 最终 Top20 Parent（进入 Writer）<br /><b>retrieval_queries</b>: 四路 query（进入 Trace）<br /><b>timing</b>: embedding / dense / sparse / RRF / load 耗时</span></div></foreignObject></g></g><g class="node default data flowchart-label" id="flowchart-COLLECTION-54" data-node="true" data-id="COLLECTION" transform="translate(1339.9375, 953.5)"><path style="" d="M 0,16.459561021436503 a 120.453125,16.459561021436503 0,0,0 240.90625 0 a 120.453125,16.459561021436503 0,0,0 -240.90625 0 l 0,79.4595610214365 a 120.453125,16.459561021436503 0,0,0 240.90625 0 l 0,-79.4595610214365" transform="translate(-120.453125,-56.18934153215476)"/><g class="label" style="" transform="translate(-112.953125, -24)"><rect/><foreignObject width="225.90625" height="48"><div xmlns="http://www.w3.org/1999/xhtml" style="display: inline-block; white-space: nowrap;"><span class="nodeLabel">每位作者一个 Qdrant collection<br />只检索当前 author 的本地索引</span></div></foreignObject></g></g><g class="node default data flowchart-label" id="flowchart-PARENTS-55" data-node="true" data-id="PARENTS" transform="translate(1215.6953125, 1835)"><path style="" d="M 0,14.583333333333334 a 87.5,14.583333333333334 0,0,0 175 0 a 87.5,14.583333333333334 0,0,0 -175 0 l 0,72.58333333333334 a 87.5,14.583333333333334 0,0,0 175 0 l 0,-72.58333333333334" transform="translate(-87.5,-50.87500000000001)"/><g class="label" style="" transform="translate(-80, -21.5)"><rect/><foreignObject width="160" height="43"><div xmlns="http://www.w3.org/1999/xhtml" style="display: inline-block; white-space: nowrap;"><span class="nodeLabel">parents.jsonl<br />完整回答、文章与想法</span></div></foreignObject></g></g><g class="node default note flowchart-label" id="flowchart-RAW-62" data-node="true" data-id="RAW" transform="translate(1233.546875, 215.5)"><rect class="basic label-container" style="" rx="0" ry="0" x="-258.609375" y="-43.5" width="517.21875" height="87"/><g class="label" style="" transform="translate(-251.109375, -36)"><rect/><foreignObject width="502.21875" height="72"><div xmlns="http://www.w3.org/1999/xhtml" style="display: inline-block; white-space: nowrap;"><span class="nodeLabel">Raw 开发者旁路<br />跳过 Query Transform，仅对 resolved_question 做一次 Dense + Sparse<br />随后执行同样的 Child→Parent RRF，最终 Parent TopK</span></div></foreignObject></g></g><g class="node default note flowchart-label" id="flowchart-NOTE-65" data-node="true" data-id="NOTE" transform="translate(1295.09375, 1395.5)"><rect class="basic label-container" style="" rx="0" ry="0" x="-297.21875" y="-55.5" width="594.4375" height="111"/><g class="label" style="" transform="translate(-289.71875, -48)"><rect/><foreignObject width="579.4375" height="96"><div xmlns="http://www.w3.org/1999/xhtml" style="display: inline-block; white-space: nowrap;"><span class="nodeLabel">为什么是两级 RRF？<br />第一级解决同一种 query 的 Dense/Sparse 融合；<br />第二级解决四种 query 表述之间的融合。<br />Parent 在某一路出现多次不会重复占便宜，但在不同路线都靠前会获得更多支持。</span></div></foreignObject></g></g></g></g></g></svg>